<?xml version="1.0" encoding="UTF-8"?>
<svg version="1.1" xmlns="http://www.w3.org/2000/svg" width="330" height="165">
<path d="M0 0 C108.9 0 217.8 0 330 0 C330 54.45 330 108.9 330 165 C221.1 165 112.2 165 0 165 C0 110.55 0 56.1 0 0 Z " fill="#FEFEFE" transform="translate(0,0)"/>
<path d="M0 0 C108.9 0 217.8 0 330 0 C330 18.48 330 36.96 330 56 C221.1 56 112.2 56 0 56 C0 37.52 0 19.04 0 0 Z " fill="#308637" transform="translate(0,109)"/>
<path d="M0 0 C108.9 0 217.8 0 330 0 C330 17.49 330 34.98 330 53 C221.1 53 112.2 53 0 53 C0 35.51 0 18.02 0 0 Z " fill="#3180F6" transform="translate(0,0)"/>
<path d="M0 0 C108.9 0 217.8 0 330 0 C330 0.99 330 1.98 330 3 C221.1 3 112.2 3 0 3 C0 2.01 0 1.02 0 0 Z " fill="#EE162E" transform="translate(0,109)"/>
<path d="M0 0 C108.9 0 217.8 0 330 0 C330 0.99 330 1.98 330 3 C221.1 3 112.2 3 0 3 C0 2.01 0 1.02 0 0 Z " fill="#EE162E" transform="translate(0,53)"/>
<path d="M0 0 C-1.0828125 0.804375 -1.0828125 0.804375 -2.1875 1.625 C-6.80471762 5.52398377 -11.42754389 10.08599773 -12.3359375 16.296875 C-12.43320349 22.40517924 -11.60427039 26.97268435 -8 32 C-5.60140956 34.33630748 -5.60140956 34.33630748 -3 36 C-2.236875 36.5775 -1.47375 37.155 -0.6875 37.75 C-0.130625 38.1625 0.42625 38.575 1 39 C-4.926068 39.75651932 -8.19318688 38.28056755 -12.9765625 34.74609375 C-17.29393868 31.02048149 -18.69887863 28.23575958 -19.44140625 22.72265625 C-19.72906633 16.98781597 -19.8138911 12.199709 -16.4375 7.375 C-11.82287579 2.31520028 -7.08815091 -0.69152692 0 0 Z " fill="#F4F8FE" transform="translate(46,7)"/>
<path d="M0 0 C1.32 0.99 2.64 1.98 4 3 C3.34 4.32 2.68 5.64 2 7 C-1 6 -1 6 -2.1875 3.9375 C-2.5896875 2.9784375 -2.5896875 2.9784375 -3 2 C-2.01 2 -1.02 2 0 2 C0 1.34 0 0.68 0 0 Z " fill="#D4E5FD" transform="translate(89,7)"/>
<path d="M0 0 C0.33 0.66 0.66 1.32 1 2 C1.99 2.33 2.98 2.66 4 3 C3.67 3.99 3.34 4.98 3 6 C1.35 6 -0.3 6 -2 6 C-1.67 5.01 -1.34 4.02 -1 3 C-1.66 2.67 -2.32 2.34 -3 2 C-2.01 2 -1.02 2 0 2 C0 1.34 0 0.68 0 0 Z " fill="#D7E7FD" transform="translate(105,39)"/>
<path d="M0 0 C0.33 0.66 0.66 1.32 1 2 C1.99 2.33 2.98 2.66 4 3 C3.34 3 2.68 3 2 3 C2.33 3.99 2.66 4.98 3 6 C1.35 6 -0.3 6 -2 6 C-2.33 4.68 -2.66 3.36 -3 2 C-2.01 2 -1.02 2 0 2 C0 1.34 0 0.68 0 0 Z " fill="#D7E6FD" transform="translate(121,39)"/>
<path d="M0 0 C1.32 0.99 2.64 1.98 4 3 C3.67 3.99 3.34 4.98 3 6 C1.68 6 0.36 6 -1 6 C-1 5.01 -1 4.02 -1 3 C-1.66 2.67 -2.32 2.34 -3 2 C-2.01 2 -1.02 2 0 2 C0 1.34 0 0.68 0 0 Z " fill="#DAE8FD" transform="translate(89,23)"/>
<path d="M0 0 C0.33 0.66 0.66 1.32 1 2 C1.99 2.33 2.98 2.66 4 3 C1.94766315 5.2477975 0.99332739 6.0022242 -2 7 C-2.33 5.35 -2.66 3.7 -3 2 C-2.01 2 -1.02 2 0 2 C0 1.34 0 0.68 0 0 Z " fill="#DAE8FD" transform="translate(121,7)"/>
<path d="M0 0 C0.33 0.66 0.66 1.32 1 2 C1.99 2.33 2.98 2.66 4 3 C3.34 4.32 2.68 5.64 2 7 C-1 6 -1 6 -2.1875 3.9375 C-2.5896875 2.9784375 -2.5896875 2.9784375 -3 2 C-2.01 2 -1.02 2 0 2 C0 1.34 0 0.68 0 0 Z " fill="#DAE8FD" transform="translate(105,7)"/>
<path d="M0 0 C0.66 0 1.32 0 2 0 C2 0.66 2 1.32 2 2 C2.66 2.33 3.32 2.66 4 3 C3.01 4.485 3.01 4.485 2 6 C1.01 6 0.02 6 -1 6 C-1.33 4.68 -1.66 3.36 -2 2 C-1.34 2 -0.68 2 0 2 C0 1.34 0 0.68 0 0 Z " fill="#E2EDFD" transform="translate(73,39)"/>
<path d="M0 0 C0.66 0 1.32 0 2 0 C2 0.66 2 1.32 2 2 C2.66 2.33 3.32 2.66 4 3 C3.01 4.485 3.01 4.485 2 6 C1.01 6 0.02 6 -1 6 C-1.33 4.68 -1.66 3.36 -2 2 C-1.34 2 -0.68 2 0 2 C0 1.34 0 0.68 0 0 Z " fill="#E2EDFE" transform="translate(57,39)"/>
<path d="M0 0 C0.33 0.66 0.66 1.32 1 2 C1.99 2.33 2.98 2.66 4 3 C3.67 3.99 3.34 4.98 3 6 C1.68 6 0.36 6 -1 6 C-1.66 4.68 -2.32 3.36 -3 2 C-2.01 2 -1.02 2 0 2 C0 1.34 0 0.68 0 0 Z " fill="#DDEAFD" transform="translate(105,23)"/>
<path d="M0 0 C0.66 0 1.32 0 2 0 C2 0.66 2 1.32 2 2 C2.66 2.33 3.32 2.66 4 3 C3.01 4.485 3.01 4.485 2 6 C1.01 6 0.02 6 -1 6 C-1.33 4.68 -1.66 3.36 -2 2 C-1.34 2 -0.68 2 0 2 C0 1.34 0 0.68 0 0 Z " fill="#DFEBFD" transform="translate(73,23)"/>
<path d="M0 0 C1.32 0.99 2.64 1.98 4 3 C3.01 4.485 3.01 4.485 2 6 C1.01 6 0.02 6 -1 6 C-1.33 4.68 -1.66 3.36 -2 2 C-1.34 2 -0.68 2 0 2 C0 1.34 0 0.68 0 0 Z " fill="#E4EEFE" transform="translate(89,39)"/>
<path d="M0 0 C0.33 0.66 0.66 1.32 1 2 C1.99 2.33 2.98 2.66 4 3 C3.34 3 2.68 3 2 3 C1.67 3.99 1.34 4.98 1 6 C0.01 5.67 -0.98 5.34 -2 5 C-2.33 4.01 -2.66 3.02 -3 2 C-2.01 2 -1.02 2 0 2 C0 1.34 0 0.68 0 0 Z " fill="#E1EDFD" transform="translate(121,23)"/>
</svg>
